<svg width="24" height="25" viewBox="0 0 24 25" fill="none" xmlns="http://www.w3.org/2000/svg">
<path fill-rule="evenodd" clip-rule="evenodd" d="M7.42864 5.74295C7.27709 5.74295 7.13174 5.80316 7.02458 5.91032C6.91742 6.01749 6.85721 6.16283 6.85721 6.31438V8.6001C6.85721 8.75165 6.91742 8.89699 7.02458 9.00416C7.13174 9.11132 7.27709 9.17153 7.42864 9.17153C7.58019 9.17153 7.72554 9.11132 7.8327 9.00416C7.93987 8.89699 8.00007 8.75165 8.00007 8.6001V6.31438C8.00007 6.16283 7.93987 6.01749 7.8327 5.91032C7.72554 5.80316 7.58019 5.74295 7.42864 5.74295ZM7.42864 4.6001C7.8833 4.6001 8.31933 4.78071 8.64082 5.1022C8.96231 5.42369 9.14293 5.85973 9.14293 6.31438V8.6001C9.14293 9.05475 8.96231 9.49079 8.64082 9.81228C8.31933 10.1338 7.8833 10.3144 7.42864 10.3144C6.97398 10.3144 6.53795 10.1338 6.21646 9.81228C5.89497 9.49079 5.71436 9.05475 5.71436 8.6001V6.31438C5.71436 5.85973 5.89497 5.42369 6.21646 5.1022C6.53795 4.78071 6.97398 4.6001 7.42864 4.6001Z" fill="#303030"/>
<path fill-rule="evenodd" clip-rule="evenodd" d="M8 7.45723C8 7.14164 8.25584 6.8858 8.57143 6.8858H21.1429C21.4584 6.8858 21.7143 7.14164 21.7143 7.45723C21.7143 7.77282 21.4584 8.02866 21.1429 8.02866H8.57143C8.25584 8.02866 8 7.77282 8 7.45723Z" fill="#303030"/>
<path fill-rule="evenodd" clip-rule="evenodd" d="M2.28564 7.45723C2.28564 7.14164 2.54148 6.8858 2.85707 6.8858H6.28564C6.60124 6.8858 6.85707 7.14164 6.85707 7.45723C6.85707 7.77282 6.60124 8.02866 6.28564 8.02866H2.85707C2.54148 8.02866 2.28564 7.77282 2.28564 7.45723Z" fill="#303030"/>
<path fill-rule="evenodd" clip-rule="evenodd" d="M7.42864 17.1715C7.27709 17.1715 7.13174 17.2317 7.02458 17.3389C6.91742 17.4461 6.85721 17.5914 6.85721 17.743V20.0287C6.85721 20.1802 6.91742 20.3256 7.02458 20.4327C7.13174 20.5399 7.27709 20.6001 7.42864 20.6001C7.58019 20.6001 7.72554 20.5399 7.8327 20.4327C7.93987 20.3256 8.00007 20.1802 8.00007 20.0287V17.743C8.00007 17.5914 7.93987 17.4461 7.8327 17.3389C7.72554 17.2317 7.58019 17.1715 7.42864 17.1715ZM6.21646 16.5308C6.53795 16.2093 6.97398 16.0287 7.42864 16.0287C7.8833 16.0287 8.31933 16.2093 8.64082 16.5308C8.96231 16.8523 9.14293 17.2883 9.14293 17.743V20.0287C9.14293 20.4833 8.96231 20.9194 8.64082 21.2409C8.31933 21.5624 7.8833 21.743 7.42864 21.743C6.97399 21.743 6.53795 21.5624 6.21646 21.2409C5.89497 20.9194 5.71436 20.4833 5.71436 20.0287V17.743C5.71436 17.2883 5.89497 16.8523 6.21646 16.5308Z" fill="#303030"/>
<path fill-rule="evenodd" clip-rule="evenodd" d="M8 18.8858C8 18.5702 8.25584 18.3144 8.57143 18.3144H21.1429C21.4584 18.3144 21.7143 18.5702 21.7143 18.8858C21.7143 19.2014 21.4584 19.4573 21.1429 19.4573H8.57143C8.25584 19.4573 8 19.2014 8 18.8858Z" fill="#303030"/>
<path fill-rule="evenodd" clip-rule="evenodd" d="M2.28564 18.8858C2.28564 18.5702 2.54148 18.3144 2.85707 18.3144H6.28564C6.60124 18.3144 6.85707 18.5702 6.85707 18.8858C6.85707 19.2014 6.60124 19.4573 6.28564 19.4573H2.85707C2.54148 19.4573 2.28564 19.2014 2.28564 18.8858Z" fill="#303030"/>
<path fill-rule="evenodd" clip-rule="evenodd" d="M16.5712 11.4572C16.4197 11.4572 16.2743 11.5175 16.1672 11.6246C16.06 11.7318 15.9998 11.8771 15.9998 12.0287V14.3144C15.9998 14.4659 16.06 14.6113 16.1672 14.7185C16.2743 14.8256 16.4197 14.8858 16.5712 14.8858C16.7228 14.8858 16.8681 14.8256 16.9753 14.7185C17.0824 14.6113 17.1426 14.4659 17.1426 14.3144V12.0287C17.1426 11.8771 17.0824 11.7318 16.9753 11.6246C16.8681 11.5175 16.7228 11.4572 16.5712 11.4572ZM16.5712 10.3144C17.0259 10.3144 17.4619 10.495 17.7834 10.8165C18.1049 11.138 18.2855 11.574 18.2855 12.0287V14.3144C18.2855 14.769 18.1049 15.2051 17.7834 15.5266C17.4619 15.8481 17.0259 16.0287 16.5712 16.0287C16.1166 16.0287 15.6805 15.8481 15.359 15.5266C15.0375 15.2051 14.8569 14.769 14.8569 14.3144V12.0287C14.8569 11.574 15.0375 11.138 15.359 10.8165C15.6805 10.495 16.1166 10.3144 16.5712 10.3144Z" fill="#303030"/>
<path fill-rule="evenodd" clip-rule="evenodd" d="M2.28564 13.1715C2.28564 12.8559 2.54148 12.6001 2.85707 12.6001H15.4285C15.7441 12.6001 15.9999 12.8559 15.9999 13.1715C15.9999 13.4871 15.7441 13.743 15.4285 13.743H2.85707C2.54148 13.743 2.28564 13.4871 2.28564 13.1715Z" fill="#303030"/>
<path fill-rule="evenodd" clip-rule="evenodd" d="M17.1426 13.1715C17.1426 12.8559 17.3984 12.6001 17.714 12.6001H21.1426C21.4582 12.6001 21.714 12.8559 21.714 13.1715C21.714 13.4871 21.4582 13.743 21.1426 13.743H17.714C17.3984 13.743 17.1426 13.4871 17.1426 13.1715Z" fill="#303030"/>
</svg>
