<svg width="19" height="17" viewBox="0 0 19 17" fill="none" xmlns="http://www.w3.org/2000/svg">
<path d="M18.1989 5.80996L12.561 5.07999L10.0407 0.528039C9.97187 0.403409 9.85862 0.302518 9.71873 0.241193C9.36788 0.0868895 8.94154 0.215476 8.76612 0.528039L6.24584 5.07999L0.607943 5.80996C0.452507 5.82974 0.310394 5.89502 0.201588 5.99394C0.0700486 6.11438 -0.0024357 6.27643 6.24985e-05 6.44447C0.0025607 6.6125 0.079837 6.77278 0.214911 6.89008L4.294 10.4331L3.3303 15.4361C3.3077 15.5525 3.32215 15.6722 3.37203 15.7816C3.4219 15.8911 3.50519 15.9858 3.61246 16.0553C3.71972 16.1247 3.84667 16.1659 3.97891 16.1743C4.11115 16.1827 4.24338 16.1579 4.36062 16.1028L9.40341 13.7408L14.4462 16.1028C14.5839 16.1681 14.7438 16.1898 14.897 16.1661C15.2833 16.1067 15.5431 15.7803 15.4765 15.4361L14.5128 10.4331L18.5919 6.89008C18.7029 6.79315 18.7762 6.66654 18.7984 6.52806C18.8584 6.18187 18.5875 5.86139 18.1989 5.80996V5.80996Z" fill="#FDBF00"/>
</svg>
