<svg width="25" height="25" viewBox="0 0 25 25" fill="none" xmlns="http://www.w3.org/2000/svg">
<g clip-path="url(#clip0_1003_25187)">
<path d="M12.8732 22.4914C10.2499 22.4914 7.73396 21.4493 5.87899 19.5943C4.02401 17.7393 2.98189 15.2235 2.98189 12.6001C2.98189 9.97678 4.02401 7.46089 5.87899 5.60591C7.73396 3.75094 10.2499 2.70882 12.8732 2.70882C15.4965 2.70882 18.0124 3.75094 19.8674 5.60591C21.7224 7.46089 22.7645 9.97678 22.7645 12.6001C22.7645 15.2235 21.7224 17.7393 19.8674 19.5943C18.0124 21.4493 15.4965 22.4914 12.8732 22.4914ZM12.8732 23.9045C15.8713 23.9045 18.7466 22.7135 20.8666 20.5935C22.9865 18.4735 24.1775 15.5982 24.1775 12.6001C24.1775 9.60202 22.9865 6.72672 20.8666 4.60674C18.7466 2.48677 15.8713 1.29578 12.8732 1.29578C9.87509 1.29578 6.99979 2.48677 4.87981 4.60674C2.75984 6.72672 1.56885 9.60202 1.56885 12.6001C1.56885 15.5982 2.75984 18.4735 4.87981 20.5935C6.99979 22.7135 9.87509 23.9045 12.8732 23.9045Z" fill="#1262AF"/>
<path d="M10.3499 7.80001C10.4832 7.73137 10.6329 7.70083 10.7824 7.71176C10.9319 7.72269 11.0756 7.77466 11.1975 7.86195L16.9021 11.9367C17.0078 12.0121 17.0939 12.1116 17.1533 12.227C17.2127 12.3424 17.2437 12.4703 17.2437 12.6001C17.2437 12.7299 17.2127 12.8578 17.1533 12.9732C17.0939 13.0886 17.0078 13.1881 16.9021 13.2635L11.1975 17.3382C11.0756 17.4255 10.932 17.4774 10.7826 17.4883C10.6331 17.4992 10.4835 17.4687 10.3503 17.4002C10.217 17.3316 10.1053 17.2276 10.0273 17.0997C9.94928 16.9717 9.90808 16.8247 9.9082 16.6749V8.52532C9.90805 8.3755 9.94919 8.22854 10.0271 8.10059C10.105 7.97263 10.2167 7.86863 10.3499 7.80001Z" fill="#1262AF"/>
</g>
<defs>
<clipPath id="clip0_1003_25187">
<rect width="24" height="24" fill="white" transform="translate(0.873047 0.600098)"/>
</clipPath>
</defs>
</svg>
